<?xml version="1.0" encoding="UTF-8" standalone="no"?>
<!DOCTYPE svg PUBLIC "-//W3C//DTD SVG 1.1//EN"
 "http://www.w3.org/Graphics/SVG/1.1/DTD/svg11.dtd">
<!-- Generated by graphviz version 2.36.0 (20140111.2315)
 -->
<!-- Title: %3 Pages: 1 -->
<svg width="814pt" height="2087pt"
 viewBox="0.00 0.00 814.00 2087.00" xmlns="http://www.w3.org/2000/svg" xmlns:xlink="http://www.w3.org/1999/xlink">
<g id="graph0" class="graph" transform="scale(1 1) rotate(0) translate(4 2083)">
<title>%3</title>
<polygon fill="white" stroke="none" points="-4,4 -4,-2083 810,-2083 810,4 -4,4"/>
<!-- CEN.DC -->
<g id="node1" class="node"><title>CEN.DC</title>
<polygon fill="#ccffcc" stroke="black" points="685,-2079 619,-2079 619,-2043 685,-2043 685,-2079"/>
<text text-anchor="middle" x="652" y="-2057.3" font-family="Times,serif" font-size="14.00">CEN.DC</text>
</g>
<!-- CEN.South -->
<g id="node5" class="node"><title>CEN.South</title>
<polygon fill="#ccffcc" stroke="black" points="367.5,-1184 288.5,-1184 288.5,-1148 367.5,-1148 367.5,-1184"/>
<text text-anchor="middle" x="328" y="-1162.3" font-family="Times,serif" font-size="14.00">CEN.South</text>
</g>
<!-- CEN.DC&#45;&gt;CEN.South -->
<g id="edge57" class="edge"><title>CEN.DC&#45;&gt;CEN.South</title>
<path fill="none" stroke="#000000" d="M625.732,-2043C622.318,-2040.14 618.971,-2037.1 616,-2034 520.943,-1934.67 483.683,-1910.67 438,-1781 396.639,-1663.59 460.624,-1331.81 402,-1222 395.22,-1209.3 384.167,-1198.6 372.688,-1190.07"/>
<polygon fill="#000000" stroke="#000000" points="374.519,-1187.08 364.311,-1184.24 370.521,-1192.83 374.519,-1187.08"/>
</g>
<!-- CEN.AK -->
<g id="node2" class="node"><title>CEN.AK</title>
<polygon fill="#ccffcc" stroke="black" points="542.5,-852 475.5,-852 475.5,-816 542.5,-816 542.5,-852"/>
<text text-anchor="middle" x="509" y="-830.3" font-family="Times,serif" font-size="14.00">CEN.AK</text>
</g>
<!-- CEN.West -->
<g id="node7" class="node"><title>CEN.West</title>
<polygon fill="#ccffcc" stroke="black" points="366,-934 290,-934 290,-898 366,-898 366,-934"/>
<text text-anchor="middle" x="328" y="-912.3" font-family="Times,serif" font-size="14.00">CEN.West</text>
</g>
<!-- CEN.AK&#45;&gt;CEN.West -->
<g id="edge21" class="edge"><title>CEN.AK&#45;&gt;CEN.West</title>
<path fill="none" stroke="#000000" d="M475.314,-845.839C463.457,-850.335 450.025,-855.663 438,-861 415.923,-870.799 391.903,-882.772 372.044,-893.042"/>
<polygon fill="#000000" stroke="#000000" points="370.2,-890.056 362.946,-897.778 373.433,-896.265 370.2,-890.056"/>
</g>
<!-- CEN.HI -->
<g id="node3" class="node"><title>CEN.HI</title>
<polygon fill="#ccffcc" stroke="black" points="540,-906 478,-906 478,-870 540,-870 540,-906"/>
<text text-anchor="middle" x="509" y="-884.3" font-family="Times,serif" font-size="14.00">CEN.HI</text>
</g>
<!-- CEN.HI&#45;&gt;CEN.West -->
<g id="edge8" class="edge"><title>CEN.HI&#45;&gt;CEN.West</title>
<path fill="none" stroke="#000000" d="M477.635,-892.75C449.824,-897.1 408.223,-903.608 376.1,-908.632"/>
<polygon fill="#000000" stroke="#000000" points="375.372,-905.204 366.033,-910.207 376.454,-912.12 375.372,-905.204"/>
</g>
<!-- CEN.Northeast -->
<g id="node4" class="node"><title>CEN.Northeast</title>
<polygon fill="#ccffcc" stroke="black" points="559,-1772 459,-1772 459,-1736 559,-1736 559,-1772"/>
<text text-anchor="middle" x="509" y="-1750.3" font-family="Times,serif" font-size="14.00">CEN.Northeast</text>
</g>
<!-- NDC.Northeast -->
<g id="node12" class="node"><title>NDC.Northeast</title>
<polygon fill="#ffffcc" stroke="black" points="399.106,-1241.54 399.106,-1256.46 357.453,-1267 298.547,-1267 256.894,-1256.46 256.894,-1241.54 298.547,-1231 357.453,-1231 399.106,-1241.54"/>
<text text-anchor="middle" x="328" y="-1245.3" font-family="Times,serif" font-size="14.00">NDC.Northeast</text>
</g>
<!-- CEN.Northeast&#45;&gt;NDC.Northeast -->
<g id="edge72" class="edge"><title>CEN.Northeast&#45;&gt;NDC.Northeast</title>
<path fill="none" stroke="#ff0000" d="M501.524,-1735.73C474.579,-1659.71 371.259,-1368.22 338.81,-1276.68"/>
<polygon fill="#ff0000" stroke="#ff0000" points="342.108,-1275.5 335.468,-1267.25 335.51,-1277.84 342.108,-1275.5"/>
</g>
<!-- CEN.USA -->
<g id="node6" class="node"><title>CEN.USA</title>
<polygon fill="#ccffcc" stroke="black" points="74,-1036 0,-1036 0,-1000 74,-1000 74,-1036"/>
<text text-anchor="middle" x="37" y="-1014.3" font-family="Times,serif" font-size="14.00">CEN.USA</text>
</g>
<!-- CEN.South&#45;&gt;CEN.USA -->
<g id="edge15" class="edge"><title>CEN.South&#45;&gt;CEN.USA</title>
<path fill="none" stroke="#000000" d="M291.563,-1147.85C238.878,-1120.87 139.949,-1070.21 82.4731,-1040.78"/>
<polygon fill="#000000" stroke="#000000" points="83.7706,-1037.51 73.2744,-1036.06 80.5798,-1043.74 83.7706,-1037.51"/>
</g>
<!-- NDC.USA -->
<g id="node10" class="node"><title>NDC.USA</title>
<polygon fill="#ffffcc" stroke="black" points="217.431,-1010.54 217.431,-1025.46 186.132,-1036 141.868,-1036 110.569,-1025.46 110.569,-1010.54 141.868,-1000 186.132,-1000 217.431,-1010.54"/>
<text text-anchor="middle" x="164" y="-1014.3" font-family="Times,serif" font-size="14.00">NDC.USA</text>
</g>
<!-- CEN.South&#45;&gt;NDC.USA -->
<g id="edge5" class="edge"><title>CEN.South&#45;&gt;NDC.USA</title>
<path fill="none" stroke="#0000ff" stroke-dasharray="1,5" d="M307.136,-1147.85C275.959,-1119.37 215.893,-1064.5 184.773,-1036.06"/>
</g>
<!-- NDC.Southwest -->
<g id="node11" class="node"><title>NDC.Southwest</title>
<polygon fill="#ffffcc" stroke="black" points="401.734,-1010.54 401.734,-1025.46 358.541,-1036 297.459,-1036 254.266,-1025.46 254.266,-1010.54 297.459,-1000 358.541,-1000 401.734,-1010.54"/>
<text text-anchor="middle" x="328" y="-1014.3" font-family="Times,serif" font-size="14.00">NDC.Southwest</text>
</g>
<!-- CEN.South&#45;&gt;NDC.Southwest -->
<g id="edge3" class="edge"><title>CEN.South&#45;&gt;NDC.Southwest</title>
<path fill="none" stroke="#0000ff" stroke-dasharray="1,5" d="M328,-1147.75C328,-1110.57 328,-1073.39 328,-1036.21"/>
</g>
<!-- CEN.South&#45;&gt;NDC.Northeast -->
<g id="edge4" class="edge"><title>CEN.South&#45;&gt;NDC.Northeast</title>
<path fill="none" stroke="#0000ff" stroke-dasharray="1,5" d="M328,-1184.16C328,-1199.69 328,-1215.23 328,-1230.76"/>
</g>
<!-- CEN.West&#45;&gt;CEN.USA -->
<g id="edge63" class="edge"><title>CEN.West&#45;&gt;CEN.USA</title>
<path fill="none" stroke="#000000" d="M289.65,-928.58C246.329,-943.247 172.814,-968.372 110,-991 101.513,-994.057 92.4905,-997.382 83.806,-1000.62"/>
<polygon fill="#000000" stroke="#000000" points="82.3293,-997.435 74.1912,-1004.22 84.7836,-1003.99 82.3293,-997.435"/>
</g>
<!-- CEN.West&#45;&gt;NDC.USA -->
<g id="edge2" class="edge"><title>CEN.West&#45;&gt;NDC.USA</title>
<path fill="none" stroke="#0000ff" stroke-dasharray="1,5" d="M298.411,-934.001C268.072,-953.103 220.543,-983.029 191.162,-1001.53"/>
</g>
<!-- CEN.West&#45;&gt;NDC.Southwest -->
<g id="edge1" class="edge"><title>CEN.West&#45;&gt;NDC.Southwest</title>
<path fill="none" stroke="#0000ff" stroke-dasharray="1,5" d="M328,-934.328C328,-956.118 328,-977.907 328,-999.697"/>
</g>
<!-- NDC.West -->
<g id="node8" class="node"><title>NDC.West</title>
<polygon fill="#ffffcc" stroke="black" points="563.338,-682.544 563.338,-697.456 531.508,-708 486.492,-708 454.662,-697.456 454.662,-682.544 486.492,-672 531.508,-672 563.338,-682.544"/>
<text text-anchor="middle" x="509" y="-686.3" font-family="Times,serif" font-size="14.00">NDC.West</text>
</g>
<!-- NDC.West&#45;&gt;CEN.West -->
<g id="edge71" class="edge"><title>NDC.West&#45;&gt;CEN.West</title>
<path fill="none" stroke="#ff0000" d="M493.654,-708.112C462.102,-747.95 386.57,-843.314 349.808,-889.729"/>
<polygon fill="#ff0000" stroke="#ff0000" points="346.879,-887.789 343.414,-897.801 352.367,-892.135 346.879,-887.789"/>
</g>
<!-- NDC.West&#45;&gt;NDC.USA -->
<g id="edge13" class="edge"><title>NDC.West&#45;&gt;NDC.USA</title>
<path fill="none" stroke="#000000" d="M481.754,-706.655C433.18,-738.279 327.522,-810.879 254,-889 224.011,-920.865 196.578,-963.603 180.324,-990.978"/>
<polygon fill="#000000" stroke="#000000" points="177.287,-989.237 175.252,-999.635 183.327,-992.776 177.287,-989.237"/>
</g>
<!-- NDC.Southeast -->
<g id="node9" class="node"><title>NDC.Southeast</title>
<polygon fill="#ffffcc" stroke="black" points="580.106,-1158.54 580.106,-1173.46 538.453,-1184 479.547,-1184 437.894,-1173.46 437.894,-1158.54 479.547,-1148 538.453,-1148 580.106,-1158.54"/>
<text text-anchor="middle" x="509" y="-1162.3" font-family="Times,serif" font-size="14.00">NDC.Southeast</text>
</g>
<!-- NDC.Southeast&#45;&gt;CEN.South -->
<g id="edge73" class="edge"><title>NDC.Southeast&#45;&gt;CEN.South</title>
<path fill="none" stroke="#ff0000" d="M437.768,-1166C417.697,-1166 396.269,-1166 377.785,-1166"/>
<polygon fill="#ff0000" stroke="#ff0000" points="377.562,-1162.5 367.561,-1166 377.561,-1169.5 377.562,-1162.5"/>
</g>
<!-- NDC.Southeast&#45;&gt;NDC.USA -->
<g id="edge51" class="edge"><title>NDC.Southeast&#45;&gt;NDC.USA</title>
<path fill="none" stroke="#000000" d="M467.887,-1150.92C458.073,-1147.12 447.627,-1142.99 438,-1139 354.861,-1104.57 258.957,-1061.2 205.82,-1036.84"/>
<polygon fill="#000000" stroke="#000000" points="207.272,-1033.66 196.723,-1032.67 204.352,-1040.02 207.272,-1033.66"/>
</g>
<!-- NDC.USA&#45;&gt;CEN.USA -->
<g id="edge70" class="edge"><title>NDC.USA&#45;&gt;CEN.USA</title>
<path fill="none" stroke="#ff0000" d="M110.351,-1018C101.718,-1018 92.8274,-1018 84.3611,-1018"/>
<polygon fill="#ff0000" stroke="#ff0000" points="84.2903,-1014.5 74.2903,-1018 84.2902,-1021.5 84.2903,-1014.5"/>
</g>
<!-- NDC.Southwest&#45;&gt;NDC.USA -->
<g id="edge54" class="edge"><title>NDC.Southwest&#45;&gt;NDC.USA</title>
<path fill="none" stroke="#000000" d="M254.056,-1018C245.339,-1018 236.497,-1018 227.937,-1018"/>
<polygon fill="#000000" stroke="#000000" points="227.665,-1014.5 217.665,-1018 227.665,-1021.5 227.665,-1014.5"/>
</g>
<!-- NDC.Northeast&#45;&gt;NDC.USA -->
<g id="edge38" class="edge"><title>NDC.Northeast&#45;&gt;NDC.USA</title>
<path fill="none" stroke="#000000" d="M297.816,-1231.11C283.338,-1221.19 266.354,-1207.86 254,-1193 215.863,-1147.12 188.269,-1082.16 174.631,-1045.67"/>
<polygon fill="#000000" stroke="#000000" points="177.878,-1044.36 171.157,-1036.17 171.304,-1046.76 177.878,-1044.36"/>
</g>
<!-- CEN.NM\nNDC.NM -->
<g id="node13" class="node"><title>CEN.NM\nNDC.NM</title>
<path fill="#eeeeee" stroke="black" d="M532.5,-1018C532.5,-1018 485.5,-1018 485.5,-1018 479.5,-1018 473.5,-1012 473.5,-1006 473.5,-1006 473.5,-992 473.5,-992 473.5,-986 479.5,-980 485.5,-980 485.5,-980 532.5,-980 532.5,-980 538.5,-980 544.5,-986 544.5,-992 544.5,-992 544.5,-1006 544.5,-1006 544.5,-1012 538.5,-1018 532.5,-1018"/>
<text text-anchor="middle" x="509" y="-1002.8" font-family="Times,serif" font-size="14.00">CEN.NM</text>
<text text-anchor="middle" x="509" y="-987.8" font-family="Times,serif" font-size="14.00">NDC.NM</text>
</g>
<!-- CEN.NM\nNDC.NM&#45;&gt;CEN.West -->
<g id="edge27" class="edge"><title>CEN.NM\nNDC.NM&#45;&gt;CEN.West</title>
<path fill="none" stroke="#000000" d="M473.213,-985.775C461.896,-981.289 449.334,-976.115 438,-971 415.984,-961.065 391.971,-949.077 372.101,-938.832"/>
<polygon fill="#000000" stroke="#000000" points="373.485,-935.607 362.996,-934.111 370.262,-941.822 373.485,-935.607"/>
</g>
<!-- CEN.NM\nNDC.NM&#45;&gt;NDC.Southwest -->
<g id="edge59" class="edge"><title>CEN.NM\nNDC.NM&#45;&gt;NDC.Southwest</title>
<path fill="none" stroke="#000000" d="M473.487,-1002.66C455.691,-1004.55 433.159,-1006.94 411.215,-1009.27"/>
<polygon fill="#000000" stroke="#000000" points="410.768,-1005.8 401.194,-1010.34 411.507,-1012.76 410.768,-1005.8"/>
</g>
<!-- CEN.AZ\nNDC.AZ -->
<g id="node14" class="node"><title>CEN.AZ\nNDC.AZ</title>
<path fill="#eeeeee" stroke="black" d="M530.5,-962C530.5,-962 487.5,-962 487.5,-962 481.5,-962 475.5,-956 475.5,-950 475.5,-950 475.5,-936 475.5,-936 475.5,-930 481.5,-924 487.5,-924 487.5,-924 530.5,-924 530.5,-924 536.5,-924 542.5,-930 542.5,-936 542.5,-936 542.5,-950 542.5,-950 542.5,-956 536.5,-962 530.5,-962"/>
<text text-anchor="middle" x="509" y="-946.8" font-family="Times,serif" font-size="14.00">CEN.AZ</text>
<text text-anchor="middle" x="509" y="-931.8" font-family="Times,serif" font-size="14.00">NDC.AZ</text>
</g>
<!-- CEN.AZ\nNDC.AZ&#45;&gt;CEN.West -->
<g id="edge37" class="edge"><title>CEN.AZ\nNDC.AZ&#45;&gt;CEN.West</title>
<path fill="none" stroke="#000000" d="M475.169,-938.048C447.512,-933.876 407.59,-927.854 376.454,-923.158"/>
<polygon fill="#000000" stroke="#000000" points="376.672,-919.651 366.262,-921.621 375.628,-926.573 376.672,-919.651"/>
</g>
<!-- CEN.AZ\nNDC.AZ&#45;&gt;NDC.Southwest -->
<g id="edge44" class="edge"><title>CEN.AZ\nNDC.AZ&#45;&gt;NDC.Southwest</title>
<path fill="none" stroke="#000000" d="M475.164,-955.926C463.412,-960.607 450.087,-965.978 438,-971 417.394,-979.562 394.718,-989.29 375.411,-997.665"/>
<polygon fill="#000000" stroke="#000000" points="374.003,-994.461 366.227,-1001.66 376.793,-1000.88 374.003,-994.461"/>
</g>
<!-- CEN.TN\nNDC.TN -->
<g id="node15" class="node"><title>CEN.TN\nNDC.TN</title>
<path fill="#eeeeee" stroke="black" d="M673.5,-1521C673.5,-1521 630.5,-1521 630.5,-1521 624.5,-1521 618.5,-1515 618.5,-1509 618.5,-1509 618.5,-1495 618.5,-1495 618.5,-1489 624.5,-1483 630.5,-1483 630.5,-1483 673.5,-1483 673.5,-1483 679.5,-1483 685.5,-1489 685.5,-1495 685.5,-1495 685.5,-1509 685.5,-1509 685.5,-1515 679.5,-1521 673.5,-1521"/>
<text text-anchor="middle" x="652" y="-1505.8" font-family="Times,serif" font-size="14.00">CEN.TN</text>
<text text-anchor="middle" x="652" y="-1490.8" font-family="Times,serif" font-size="14.00">NDC.TN</text>
</g>
<!-- CEN.TN\nNDC.TN&#45;&gt;NDC.Southeast -->
<g id="edge9" class="edge"><title>CEN.TN\nNDC.TN&#45;&gt;NDC.Southeast</title>
<path fill="none" stroke="#000000" d="M622.523,-1482.69C620.006,-1480.02 617.753,-1477.12 616,-1474 554.343,-1364.22 657.698,-1292.08 580,-1193 577.165,-1189.39 573.783,-1186.25 570.059,-1183.54"/>
<polygon fill="#000000" stroke="#000000" points="571.789,-1180.5 561.436,-1178.25 568.127,-1186.46 571.789,-1180.5"/>
</g>
<!-- CEN.MA\nNDC.MA -->
<g id="node16" class="node"><title>CEN.MA\nNDC.MA</title>
<path fill="#eeeeee" stroke="black" d="M675.5,-1857C675.5,-1857 628.5,-1857 628.5,-1857 622.5,-1857 616.5,-1851 616.5,-1845 616.5,-1845 616.5,-1831 616.5,-1831 616.5,-1825 622.5,-1819 628.5,-1819 628.5,-1819 675.5,-1819 675.5,-1819 681.5,-1819 687.5,-1825 687.5,-1831 687.5,-1831 687.5,-1845 687.5,-1845 687.5,-1851 681.5,-1857 675.5,-1857"/>
<text text-anchor="middle" x="652" y="-1841.8" font-family="Times,serif" font-size="14.00">CEN.MA</text>
<text text-anchor="middle" x="652" y="-1826.8" font-family="Times,serif" font-size="14.00">NDC.MA</text>
</g>
<!-- CEN.MA\nNDC.MA&#45;&gt;CEN.Northeast -->
<g id="edge16" class="edge"><title>CEN.MA\nNDC.MA&#45;&gt;CEN.Northeast</title>
<path fill="none" stroke="#000000" d="M619.005,-1818.94C598.295,-1806.6 571.191,-1790.45 549.191,-1777.35"/>
<polygon fill="#000000" stroke="#000000" points="550.801,-1774.23 540.419,-1772.12 547.218,-1780.25 550.801,-1774.23"/>
</g>
<!-- CEN.IN\nNDC.IN -->
<g id="node17" class="node"><title>CEN.IN\nNDC.IN</title>
<path fill="#eeeeee" stroke="black" d="M528.5,-38C528.5,-38 489.5,-38 489.5,-38 483.5,-38 477.5,-32 477.5,-26 477.5,-26 477.5,-12 477.5,-12 477.5,-6 483.5,-0 489.5,-0 489.5,-0 528.5,-0 528.5,-0 534.5,-0 540.5,-6 540.5,-12 540.5,-12 540.5,-26 540.5,-26 540.5,-32 534.5,-38 528.5,-38"/>
<text text-anchor="middle" x="509" y="-22.8" font-family="Times,serif" font-size="14.00">CEN.IN</text>
<text text-anchor="middle" x="509" y="-7.8" font-family="Times,serif" font-size="14.00">NDC.IN</text>
</g>
<!-- CEN.Midwest\nNDC.Midwest -->
<g id="node44" class="node"><title>CEN.Midwest\nNDC.Midwest</title>
<path fill="#eeeeee" stroke="black" d="M364.5,-374C364.5,-374 291.5,-374 291.5,-374 285.5,-374 279.5,-368 279.5,-362 279.5,-362 279.5,-348 279.5,-348 279.5,-342 285.5,-336 291.5,-336 291.5,-336 364.5,-336 364.5,-336 370.5,-336 376.5,-342 376.5,-348 376.5,-348 376.5,-362 376.5,-362 376.5,-368 370.5,-374 364.5,-374"/>
<text text-anchor="middle" x="328" y="-358.8" font-family="Times,serif" font-size="14.00">CEN.Midwest</text>
<text text-anchor="middle" x="328" y="-343.8" font-family="Times,serif" font-size="14.00">NDC.Midwest</text>
</g>
<!-- CEN.IN\nNDC.IN&#45;&gt;CEN.Midwest\nNDC.Midwest -->
<g id="edge40" class="edge"><title>CEN.IN\nNDC.IN&#45;&gt;CEN.Midwest\nNDC.Midwest</title>
<path fill="none" stroke="#000000" d="M477.175,-25.2455C463.611,-29.3909 448.427,-36.1438 438,-47 360.879,-127.299 337.941,-265.529 331.437,-325.648"/>
<polygon fill="#000000" stroke="#000000" points="327.921,-325.634 330.404,-335.934 334.886,-326.333 327.921,-325.634"/>
</g>
<!-- CEN.MD\nNDC.MD -->
<g id="node18" class="node"><title>CEN.MD\nNDC.MD</title>
<path fill="#eeeeee" stroke="black" d="M532.5,-1296C532.5,-1296 485.5,-1296 485.5,-1296 479.5,-1296 473.5,-1290 473.5,-1284 473.5,-1284 473.5,-1270 473.5,-1270 473.5,-1264 479.5,-1258 485.5,-1258 485.5,-1258 532.5,-1258 532.5,-1258 538.5,-1258 544.5,-1264 544.5,-1270 544.5,-1270 544.5,-1284 544.5,-1284 544.5,-1290 538.5,-1296 532.5,-1296"/>
<text text-anchor="middle" x="509" y="-1280.8" font-family="Times,serif" font-size="14.00">CEN.MD</text>
<text text-anchor="middle" x="509" y="-1265.8" font-family="Times,serif" font-size="14.00">NDC.MD</text>
</g>
<!-- CEN.MD\nNDC.MD&#45;&gt;CEN.South -->
<g id="edge17" class="edge"><title>CEN.MD\nNDC.MD&#45;&gt;CEN.South</title>
<path fill="none" stroke="#000000" d="M473.316,-1265.26C461.77,-1260.8 449.045,-1255.26 438,-1249 435.887,-1247.8 392.065,-1214.32 360.639,-1190.25"/>
<polygon fill="#000000" stroke="#000000" points="362.616,-1187.36 352.55,-1184.06 358.36,-1192.92 362.616,-1187.36"/>
</g>
<!-- CEN.MD\nNDC.MD&#45;&gt;NDC.Northeast -->
<g id="edge29" class="edge"><title>CEN.MD\nNDC.MD&#45;&gt;NDC.Northeast</title>
<path fill="none" stroke="#000000" d="M473.487,-1271.6C452.769,-1268.36 425.633,-1264.12 400.479,-1260.18"/>
<polygon fill="#000000" stroke="#000000" points="401.007,-1256.72 390.586,-1258.63 399.925,-1263.64 401.007,-1256.72"/>
</g>
<!-- CEN.CT\nNDC.CT -->
<g id="node19" class="node"><title>CEN.CT\nNDC.CT</title>
<path fill="#eeeeee" stroke="black" d="M673,-1801C673,-1801 631,-1801 631,-1801 625,-1801 619,-1795 619,-1789 619,-1789 619,-1775 619,-1775 619,-1769 625,-1763 631,-1763 631,-1763 673,-1763 673,-1763 679,-1763 685,-1769 685,-1775 685,-1775 685,-1789 685,-1789 685,-1795 679,-1801 673,-1801"/>
<text text-anchor="middle" x="652" y="-1785.8" font-family="Times,serif" font-size="14.00">CEN.CT</text>
<text text-anchor="middle" x="652" y="-1770.8" font-family="Times,serif" font-size="14.00">NDC.CT</text>
</g>
<!-- CEN.CT\nNDC.CT&#45;&gt;CEN.Northeast -->
<g id="edge39" class="edge"><title>CEN.CT\nNDC.CT&#45;&gt;CEN.Northeast</title>
<path fill="none" stroke="#000000" d="M618.652,-1775.58C603.903,-1772.65 585.967,-1769.09 568.953,-1765.71"/>
<polygon fill="#000000" stroke="#000000" points="569.563,-1762.26 559.073,-1763.74 568.2,-1769.13 569.563,-1762.26"/>
</g>
<!-- CEN.WA\nNDC.WA -->
<g id="node20" class="node"><title>CEN.WA\nNDC.WA</title>
<path fill="#eeeeee" stroke="black" d="M676,-849C676,-849 628,-849 628,-849 622,-849 616,-843 616,-837 616,-837 616,-823 616,-823 616,-817 622,-811 628,-811 628,-811 676,-811 676,-811 682,-811 688,-817 688,-823 688,-823 688,-837 688,-837 688,-843 682,-849 676,-849"/>
<text text-anchor="middle" x="652" y="-833.8" font-family="Times,serif" font-size="14.00">CEN.WA</text>
<text text-anchor="middle" x="652" y="-818.8" font-family="Times,serif" font-size="14.00">NDC.WA</text>
</g>
<!-- CEN.WA\nNDC.WA&#45;&gt;NDC.West -->
<g id="edge61" class="edge"><title>CEN.WA\nNDC.WA&#45;&gt;NDC.West</title>
<path fill="none" stroke="#000000" d="M626.163,-810.836C622.685,-807.95 619.207,-804.951 616,-802 585.688,-774.109 553.523,-739.287 532.681,-715.941"/>
<polygon fill="#000000" stroke="#000000" points="535.059,-713.347 525.803,-708.191 529.824,-717.994 535.059,-713.347"/>
</g>
<!-- CEN.MI\nNDC.MI -->
<g id="node21" class="node"><title>CEN.MI\nNDC.MI</title>
<path fill="#eeeeee" stroke="black" d="M530,-262C530,-262 488,-262 488,-262 482,-262 476,-256 476,-250 476,-250 476,-236 476,-236 476,-230 482,-224 488,-224 488,-224 530,-224 530,-224 536,-224 542,-230 542,-236 542,-236 542,-250 542,-250 542,-256 536,-262 530,-262"/>
<text text-anchor="middle" x="509" y="-246.8" font-family="Times,serif" font-size="14.00">CEN.MI</text>
<text text-anchor="middle" x="509" y="-231.8" font-family="Times,serif" font-size="14.00">NDC.MI</text>
</g>
<!-- CEN.MI\nNDC.MI&#45;&gt;CEN.Midwest\nNDC.Midwest -->
<g id="edge22" class="edge"><title>CEN.MI\nNDC.MI&#45;&gt;CEN.Midwest\nNDC.Midwest</title>
<path fill="none" stroke="#000000" d="M475.776,-253.756C463.593,-258.367 449.823,-264.253 438,-271 408.929,-287.589 379.031,-311.179 357.918,-329.139"/>
<polygon fill="#000000" stroke="#000000" points="355.57,-326.542 350.277,-335.72 360.138,-331.846 355.57,-326.542"/>
</g>
<!-- CEN.VA\nNDC.VA -->
<g id="node22" class="node"><title>CEN.VA\nNDC.VA</title>
<path fill="#eeeeee" stroke="black" d="M674,-1465C674,-1465 630,-1465 630,-1465 624,-1465 618,-1459 618,-1453 618,-1453 618,-1439 618,-1439 618,-1433 624,-1427 630,-1427 630,-1427 674,-1427 674,-1427 680,-1427 686,-1433 686,-1439 686,-1439 686,-1453 686,-1453 686,-1459 680,-1465 674,-1465"/>
<text text-anchor="middle" x="652" y="-1449.8" font-family="Times,serif" font-size="14.00">CEN.VA</text>
<text text-anchor="middle" x="652" y="-1434.8" font-family="Times,serif" font-size="14.00">NDC.VA</text>
</g>
<!-- CEN.VA\nNDC.VA&#45;&gt;NDC.Southeast -->
<g id="edge65" class="edge"><title>CEN.VA\nNDC.VA&#45;&gt;NDC.Southeast</title>
<path fill="none" stroke="#000000" d="M622.953,-1426.98C620.285,-1424.23 617.88,-1421.23 616,-1418 565.035,-1330.49 643.731,-1271.7 580,-1193 577.109,-1189.43 573.687,-1186.33 569.933,-1183.64"/>
<polygon fill="#000000" stroke="#000000" points="571.632,-1180.58 561.267,-1178.38 568.001,-1186.56 571.632,-1180.58"/>
</g>
<!-- CEN.CA\nNDC.CA -->
<g id="node23" class="node"><title>CEN.CA\nNDC.CA</title>
<path fill="#eeeeee" stroke="black" d="M674,-793C674,-793 630,-793 630,-793 624,-793 618,-787 618,-781 618,-781 618,-767 618,-767 618,-761 624,-755 630,-755 630,-755 674,-755 674,-755 680,-755 686,-761 686,-767 686,-767 686,-781 686,-781 686,-787 680,-793 674,-793"/>
<text text-anchor="middle" x="652" y="-777.8" font-family="Times,serif" font-size="14.00">CEN.CA</text>
<text text-anchor="middle" x="652" y="-762.8" font-family="Times,serif" font-size="14.00">NDC.CA</text>
</g>
<!-- CEN.CA\nNDC.CA&#45;&gt;NDC.West -->
<g id="edge49" class="edge"><title>CEN.CA\nNDC.CA&#45;&gt;NDC.West</title>
<path fill="none" stroke="#000000" d="M619.005,-754.939C597.199,-741.948 568.304,-724.734 545.742,-711.293"/>
<polygon fill="#000000" stroke="#000000" points="547.506,-708.27 537.124,-706.159 543.923,-714.284 547.506,-708.27"/>
</g>
<!-- CEN.NY\nNDC.NY -->
<g id="node24" class="node"><title>CEN.NY\nNDC.NY</title>
<path fill="#eeeeee" stroke="black" d="M674,-1745C674,-1745 630,-1745 630,-1745 624,-1745 618,-1739 618,-1733 618,-1733 618,-1719 618,-1719 618,-1713 624,-1707 630,-1707 630,-1707 674,-1707 674,-1707 680,-1707 686,-1713 686,-1719 686,-1719 686,-1733 686,-1733 686,-1739 680,-1745 674,-1745"/>
<text text-anchor="middle" x="652" y="-1729.8" font-family="Times,serif" font-size="14.00">CEN.NY</text>
<text text-anchor="middle" x="652" y="-1714.8" font-family="Times,serif" font-size="14.00">NDC.NY</text>
</g>
<!-- CEN.NY\nNDC.NY&#45;&gt;CEN.Northeast -->
<g id="edge23" class="edge"><title>CEN.NY\nNDC.NY&#45;&gt;CEN.Northeast</title>
<path fill="none" stroke="#000000" d="M617.942,-1732.56C603.449,-1735.44 585.983,-1738.91 569.364,-1742.21"/>
<polygon fill="#000000" stroke="#000000" points="568.286,-1738.86 559.16,-1744.24 569.65,-1745.72 568.286,-1738.86"/>
</g>
<!-- CEN.MS\nNDC.MS -->
<g id="node25" class="node"><title>CEN.MS\nNDC.MS</title>
<path fill="#eeeeee" stroke="black" d="M674.5,-1409C674.5,-1409 629.5,-1409 629.5,-1409 623.5,-1409 617.5,-1403 617.5,-1397 617.5,-1397 617.5,-1383 617.5,-1383 617.5,-1377 623.5,-1371 629.5,-1371 629.5,-1371 674.5,-1371 674.5,-1371 680.5,-1371 686.5,-1377 686.5,-1383 686.5,-1383 686.5,-1397 686.5,-1397 686.5,-1403 680.5,-1409 674.5,-1409"/>
<text text-anchor="middle" x="652" y="-1393.8" font-family="Times,serif" font-size="14.00">CEN.MS</text>
<text text-anchor="middle" x="652" y="-1378.8" font-family="Times,serif" font-size="14.00">NDC.MS</text>
</g>
<!-- CEN.MS\nNDC.MS&#45;&gt;NDC.Southeast -->
<g id="edge55" class="edge"><title>CEN.MS\nNDC.MS&#45;&gt;NDC.Southeast</title>
<path fill="none" stroke="#000000" d="M623.115,-1370.88C620.418,-1368.15 617.962,-1365.18 616,-1362 575.665,-1296.65 629.841,-1251.43 580,-1193 576.97,-1189.45 573.416,-1186.36 569.545,-1183.68"/>
<polygon fill="#000000" stroke="#000000" points="571.033,-1180.49 560.641,-1178.43 567.479,-1186.52 571.033,-1180.49"/>
</g>
<!-- CEN.ID\nNDC.ID -->
<g id="node26" class="node"><title>CEN.ID\nNDC.ID</title>
<path fill="#eeeeee" stroke="black" d="M671.5,-737C671.5,-737 632.5,-737 632.5,-737 626.5,-737 620.5,-731 620.5,-725 620.5,-725 620.5,-711 620.5,-711 620.5,-705 626.5,-699 632.5,-699 632.5,-699 671.5,-699 671.5,-699 677.5,-699 683.5,-705 683.5,-711 683.5,-711 683.5,-725 683.5,-725 683.5,-731 677.5,-737 671.5,-737"/>
<text text-anchor="middle" x="652" y="-721.8" font-family="Times,serif" font-size="14.00">CEN.ID</text>
<text text-anchor="middle" x="652" y="-706.8" font-family="Times,serif" font-size="14.00">NDC.ID</text>
</g>
<!-- CEN.ID\nNDC.ID&#45;&gt;NDC.West -->
<g id="edge35" class="edge"><title>CEN.ID\nNDC.ID&#45;&gt;NDC.West</title>
<path fill="none" stroke="#000000" d="M620.405,-711.924C604.892,-708.844 585.535,-705 567.382,-701.395"/>
<polygon fill="#000000" stroke="#000000" points="567.942,-697.938 557.452,-699.423 566.579,-704.804 567.942,-697.938"/>
</g>
<!-- CEN.MN\nNDC.MN -->
<g id="node27" class="node"><title>CEN.MN\nNDC.MN</title>
<path fill="#eeeeee" stroke="black" d="M532.5,-206C532.5,-206 485.5,-206 485.5,-206 479.5,-206 473.5,-200 473.5,-194 473.5,-194 473.5,-180 473.5,-180 473.5,-174 479.5,-168 485.5,-168 485.5,-168 532.5,-168 532.5,-168 538.5,-168 544.5,-174 544.5,-180 544.5,-180 544.5,-194 544.5,-194 544.5,-200 538.5,-206 532.5,-206"/>
<text text-anchor="middle" x="509" y="-190.8" font-family="Times,serif" font-size="14.00">CEN.MN</text>
<text text-anchor="middle" x="509" y="-175.8" font-family="Times,serif" font-size="14.00">NDC.MN</text>
</g>
<!-- CEN.MN\nNDC.MN&#45;&gt;CEN.Midwest\nNDC.Midwest -->
<g id="edge67" class="edge"><title>CEN.MN\nNDC.MN&#45;&gt;CEN.Midwest\nNDC.Midwest</title>
<path fill="none" stroke="#000000" d="M473.352,-196.756C461.43,-201.139 448.46,-207.132 438,-215 396.998,-245.84 363.209,-295.813 344.604,-326.967"/>
<polygon fill="#000000" stroke="#000000" points="341.578,-325.208 339.545,-335.606 347.618,-328.745 341.578,-325.208"/>
</g>
<!-- CEN.NJ\nNDC.NJ -->
<g id="node28" class="node"><title>CEN.NJ\nNDC.NJ</title>
<path fill="#eeeeee" stroke="black" d="M672,-1689C672,-1689 632,-1689 632,-1689 626,-1689 620,-1683 620,-1677 620,-1677 620,-1663 620,-1663 620,-1657 626,-1651 632,-1651 632,-1651 672,-1651 672,-1651 678,-1651 684,-1657 684,-1663 684,-1663 684,-1677 684,-1677 684,-1683 678,-1689 672,-1689"/>
<text text-anchor="middle" x="652" y="-1673.8" font-family="Times,serif" font-size="14.00">CEN.NJ</text>
<text text-anchor="middle" x="652" y="-1658.8" font-family="Times,serif" font-size="14.00">NDC.NJ</text>
</g>
<!-- CEN.NJ\nNDC.NJ&#45;&gt;CEN.Northeast -->
<g id="edge66" class="edge"><title>CEN.NJ\nNDC.NJ&#45;&gt;CEN.Northeast</title>
<path fill="none" stroke="#000000" d="M619.708,-1688.64C598.886,-1701.05 571.373,-1717.44 549.11,-1730.7"/>
<polygon fill="#000000" stroke="#000000" points="547.037,-1727.86 540.237,-1735.99 550.62,-1733.88 547.037,-1727.86"/>
</g>
<!-- CEN.UT\nNDC.UT -->
<g id="node29" class="node"><title>CEN.UT\nNDC.UT</title>
<path fill="#eeeeee" stroke="black" d="M673.5,-681C673.5,-681 630.5,-681 630.5,-681 624.5,-681 618.5,-675 618.5,-669 618.5,-669 618.5,-655 618.5,-655 618.5,-649 624.5,-643 630.5,-643 630.5,-643 673.5,-643 673.5,-643 679.5,-643 685.5,-649 685.5,-655 685.5,-655 685.5,-669 685.5,-669 685.5,-675 679.5,-681 673.5,-681"/>
<text text-anchor="middle" x="652" y="-665.8" font-family="Times,serif" font-size="14.00">CEN.UT</text>
<text text-anchor="middle" x="652" y="-650.8" font-family="Times,serif" font-size="14.00">NDC.UT</text>
</g>
<!-- CEN.UT\nNDC.UT&#45;&gt;NDC.West -->
<g id="edge56" class="edge"><title>CEN.UT\nNDC.UT&#45;&gt;NDC.West</title>
<path fill="none" stroke="#000000" d="M618.297,-668.494C603.2,-671.492 584.819,-675.142 567.519,-678.578"/>
<polygon fill="#000000" stroke="#000000" points="566.617,-675.188 557.49,-680.569 567.981,-682.054 566.617,-675.188"/>
</g>
<!-- CEN.DE\nNDC.DE -->
<g id="node30" class="node"><title>CEN.DE\nNDC.DE</title>
<path fill="#eeeeee" stroke="black" d="M530.5,-1240C530.5,-1240 487.5,-1240 487.5,-1240 481.5,-1240 475.5,-1234 475.5,-1228 475.5,-1228 475.5,-1214 475.5,-1214 475.5,-1208 481.5,-1202 487.5,-1202 487.5,-1202 530.5,-1202 530.5,-1202 536.5,-1202 542.5,-1208 542.5,-1214 542.5,-1214 542.5,-1228 542.5,-1228 542.5,-1234 536.5,-1240 530.5,-1240"/>
<text text-anchor="middle" x="509" y="-1224.8" font-family="Times,serif" font-size="14.00">CEN.DE</text>
<text text-anchor="middle" x="509" y="-1209.8" font-family="Times,serif" font-size="14.00">NDC.DE</text>
</g>
<!-- CEN.DE\nNDC.DE&#45;&gt;CEN.South -->
<g id="edge24" class="edge"><title>CEN.DE\nNDC.DE&#45;&gt;CEN.South</title>
<path fill="none" stroke="#000000" d="M475.169,-1210.91C447.756,-1202.49 408.294,-1190.36 377.28,-1180.83"/>
<polygon fill="#000000" stroke="#000000" points="378.121,-1177.43 367.534,-1177.84 376.065,-1184.12 378.121,-1177.43"/>
</g>
<!-- CEN.DE\nNDC.DE&#45;&gt;NDC.Northeast -->
<g id="edge33" class="edge"><title>CEN.DE\nNDC.DE&#45;&gt;NDC.Northeast</title>
<path fill="none" stroke="#000000" d="M475.169,-1226.14C454.319,-1229.4 426.499,-1233.75 400.727,-1237.78"/>
<polygon fill="#000000" stroke="#000000" points="399.933,-1234.36 390.594,-1239.37 401.015,-1241.28 399.933,-1234.36"/>
</g>
<!-- CEN.NC\nNDC.NC -->
<g id="node31" class="node"><title>CEN.NC\nNDC.NC</title>
<path fill="#eeeeee" stroke="black" d="M674,-1353C674,-1353 630,-1353 630,-1353 624,-1353 618,-1347 618,-1341 618,-1341 618,-1327 618,-1327 618,-1321 624,-1315 630,-1315 630,-1315 674,-1315 674,-1315 680,-1315 686,-1321 686,-1327 686,-1327 686,-1341 686,-1341 686,-1347 680,-1353 674,-1353"/>
<text text-anchor="middle" x="652" y="-1337.8" font-family="Times,serif" font-size="14.00">CEN.NC</text>
<text text-anchor="middle" x="652" y="-1322.8" font-family="Times,serif" font-size="14.00">NDC.NC</text>
</g>
<!-- CEN.NC\nNDC.NC&#45;&gt;NDC.Southeast -->
<g id="edge53" class="edge"><title>CEN.NC\nNDC.NC&#45;&gt;NDC.Southeast</title>
<path fill="none" stroke="#000000" d="M623.42,-1314.68C620.669,-1311.99 618.116,-1309.08 616,-1306 586.141,-1262.56 616.142,-1231.37 580,-1193 576.659,-1189.45 572.8,-1186.37 568.646,-1183.68"/>
<polygon fill="#000000" stroke="#000000" points="570.21,-1180.55 559.774,-1178.71 566.79,-1186.65 570.21,-1180.55"/>
</g>
<!-- CEN.SC\nNDC.SC -->
<g id="node32" class="node"><title>CEN.SC\nNDC.SC</title>
<path fill="#eeeeee" stroke="black" d="M672.5,-1297C672.5,-1297 631.5,-1297 631.5,-1297 625.5,-1297 619.5,-1291 619.5,-1285 619.5,-1285 619.5,-1271 619.5,-1271 619.5,-1265 625.5,-1259 631.5,-1259 631.5,-1259 672.5,-1259 672.5,-1259 678.5,-1259 684.5,-1265 684.5,-1271 684.5,-1271 684.5,-1285 684.5,-1285 684.5,-1291 678.5,-1297 672.5,-1297"/>
<text text-anchor="middle" x="652" y="-1281.8" font-family="Times,serif" font-size="14.00">CEN.SC</text>
<text text-anchor="middle" x="652" y="-1266.8" font-family="Times,serif" font-size="14.00">NDC.SC</text>
</g>
<!-- CEN.SC\nNDC.SC&#45;&gt;NDC.Southeast -->
<g id="edge18" class="edge"><title>CEN.SC\nNDC.SC&#45;&gt;NDC.Southeast</title>
<path fill="none" stroke="#000000" d="M624.884,-1258.74C621.743,-1255.96 618.697,-1253.02 616,-1250 596.026,-1227.67 603.151,-1212.02 580,-1193 575.786,-1189.54 571.077,-1186.48 566.149,-1183.8"/>
<polygon fill="#000000" stroke="#000000" points="567.619,-1180.62 557.1,-1179.36 564.535,-1186.91 567.619,-1180.62"/>
</g>
<!-- CEN.AR\nNDC.AR -->
<g id="node33" class="node"><title>CEN.AR\nNDC.AR</title>
<path fill="#eeeeee" stroke="black" d="M674,-1241C674,-1241 630,-1241 630,-1241 624,-1241 618,-1235 618,-1229 618,-1229 618,-1215 618,-1215 618,-1209 624,-1203 630,-1203 630,-1203 674,-1203 674,-1203 680,-1203 686,-1209 686,-1215 686,-1215 686,-1229 686,-1229 686,-1235 680,-1241 674,-1241"/>
<text text-anchor="middle" x="652" y="-1225.8" font-family="Times,serif" font-size="14.00">CEN.AR</text>
<text text-anchor="middle" x="652" y="-1210.8" font-family="Times,serif" font-size="14.00">NDC.AR</text>
</g>
<!-- CEN.AR\nNDC.AR&#45;&gt;NDC.Southeast -->
<g id="edge60" class="edge"><title>CEN.AR\nNDC.AR&#45;&gt;NDC.Southeast</title>
<path fill="none" stroke="#000000" d="M617.824,-1208.29C605.916,-1203.41 592.375,-1197.91 580,-1193 573.342,-1190.36 566.313,-1187.6 559.381,-1184.91"/>
<polygon fill="#000000" stroke="#000000" points="560.621,-1181.63 550.032,-1181.29 558.092,-1188.16 560.621,-1181.63"/>
</g>
<!-- CEN.TX\nNDC.TX -->
<g id="node34" class="node"><title>CEN.TX\nNDC.TX</title>
<path fill="#eeeeee" stroke="black" d="M530.5,-1074C530.5,-1074 487.5,-1074 487.5,-1074 481.5,-1074 475.5,-1068 475.5,-1062 475.5,-1062 475.5,-1048 475.5,-1048 475.5,-1042 481.5,-1036 487.5,-1036 487.5,-1036 530.5,-1036 530.5,-1036 536.5,-1036 542.5,-1042 542.5,-1048 542.5,-1048 542.5,-1062 542.5,-1062 542.5,-1068 536.5,-1074 530.5,-1074"/>
<text text-anchor="middle" x="509" y="-1058.8" font-family="Times,serif" font-size="14.00">CEN.TX</text>
<text text-anchor="middle" x="509" y="-1043.8" font-family="Times,serif" font-size="14.00">NDC.TX</text>
</g>
<!-- CEN.TX\nNDC.TX&#45;&gt;CEN.South -->
<g id="edge50" class="edge"><title>CEN.TX\nNDC.TX&#45;&gt;CEN.South</title>
<path fill="none" stroke="#000000" d="M475.445,-1065.93C463.351,-1070.52 449.729,-1076.35 438,-1083 408.459,-1099.74 377.968,-1123.62 356.774,-1141.48"/>
<polygon fill="#000000" stroke="#000000" points="354.467,-1138.84 349.127,-1147.99 359.008,-1144.17 354.467,-1138.84"/>
</g>
<!-- CEN.TX\nNDC.TX&#45;&gt;NDC.Southwest -->
<g id="edge42" class="edge"><title>CEN.TX\nNDC.TX&#45;&gt;NDC.Southwest</title>
<path fill="none" stroke="#000000" d="M475.169,-1048.21C452.786,-1043.59 422.371,-1037.3 395.08,-1031.66"/>
<polygon fill="#000000" stroke="#000000" points="395.689,-1028.21 385.188,-1029.61 394.272,-1035.07 395.689,-1028.21"/>
</g>
<!-- CEN.OH\nNDC.OH -->
<g id="node35" class="node"><title>CEN.OH\nNDC.OH</title>
<path fill="#eeeeee" stroke="black" d="M531,-150C531,-150 487,-150 487,-150 481,-150 475,-144 475,-138 475,-138 475,-124 475,-124 475,-118 481,-112 487,-112 487,-112 531,-112 531,-112 537,-112 543,-118 543,-124 543,-124 543,-138 543,-138 543,-144 537,-150 531,-150"/>
<text text-anchor="middle" x="509" y="-134.8" font-family="Times,serif" font-size="14.00">CEN.OH</text>
<text text-anchor="middle" x="509" y="-119.8" font-family="Times,serif" font-size="14.00">NDC.OH</text>
</g>
<!-- CEN.OH\nNDC.OH&#45;&gt;CEN.Midwest\nNDC.Midwest -->
<g id="edge69" class="edge"><title>CEN.OH\nNDC.OH&#45;&gt;CEN.Midwest\nNDC.Midwest</title>
<path fill="none" stroke="#000000" d="M474.791,-139.131C462.205,-143.456 448.413,-149.832 438,-159 385.22,-205.468 352.66,-283.925 338.06,-326.106"/>
<polygon fill="#000000" stroke="#000000" points="334.683,-325.168 334.813,-335.762 341.318,-327.398 334.683,-325.168"/>
</g>
<!-- CEN.GA\nNDC.GA -->
<g id="node36" class="node"><title>CEN.GA\nNDC.GA</title>
<path fill="#eeeeee" stroke="black" d="M674,-1185C674,-1185 630,-1185 630,-1185 624,-1185 618,-1179 618,-1173 618,-1173 618,-1159 618,-1159 618,-1153 624,-1147 630,-1147 630,-1147 674,-1147 674,-1147 680,-1147 686,-1153 686,-1159 686,-1159 686,-1173 686,-1173 686,-1179 680,-1185 674,-1185"/>
<text text-anchor="middle" x="652" y="-1169.8" font-family="Times,serif" font-size="14.00">CEN.GA</text>
<text text-anchor="middle" x="652" y="-1154.8" font-family="Times,serif" font-size="14.00">NDC.GA</text>
</g>
<!-- CEN.GA\nNDC.GA&#45;&gt;NDC.Southeast -->
<g id="edge7" class="edge"><title>CEN.GA\nNDC.GA&#45;&gt;NDC.Southeast</title>
<path fill="none" stroke="#000000" d="M617.942,-1166C609.484,-1166 600.014,-1166 590.29,-1166"/>
<polygon fill="#000000" stroke="#000000" points="590.097,-1162.5 580.097,-1166 590.097,-1169.5 590.097,-1162.5"/>
</g>
<!-- CEN.KS\nNDC.KS -->
<g id="node37" class="node"><title>CEN.KS\nNDC.KS</title>
<path fill="#eeeeee" stroke="black" d="M530,-654C530,-654 488,-654 488,-654 482,-654 476,-648 476,-642 476,-642 476,-628 476,-628 476,-622 482,-616 488,-616 488,-616 530,-616 530,-616 536,-616 542,-622 542,-628 542,-628 542,-642 542,-642 542,-648 536,-654 530,-654"/>
<text text-anchor="middle" x="509" y="-638.8" font-family="Times,serif" font-size="14.00">CEN.KS</text>
<text text-anchor="middle" x="509" y="-623.8" font-family="Times,serif" font-size="14.00">NDC.KS</text>
</g>
<!-- CEN.KS\nNDC.KS&#45;&gt;CEN.Midwest\nNDC.Midwest -->
<g id="edge62" class="edge"><title>CEN.KS\nNDC.KS&#45;&gt;CEN.Midwest\nNDC.Midwest</title>
<path fill="none" stroke="#000000" d="M475.737,-627.862C462.697,-623.62 448.321,-617.039 438,-607 373.106,-543.881 344.508,-435.723 334.067,-384.09"/>
<polygon fill="#000000" stroke="#000000" points="337.5,-383.408 332.162,-374.256 330.628,-384.739 337.5,-383.408"/>
</g>
<!-- CEN.ND\nNDC.ND -->
<g id="node38" class="node"><title>CEN.ND\nNDC.ND</title>
<path fill="#eeeeee" stroke="black" d="M531,-598C531,-598 487,-598 487,-598 481,-598 475,-592 475,-586 475,-586 475,-572 475,-572 475,-566 481,-560 487,-560 487,-560 531,-560 531,-560 537,-560 543,-566 543,-572 543,-572 543,-586 543,-586 543,-592 537,-598 531,-598"/>
<text text-anchor="middle" x="509" y="-582.8" font-family="Times,serif" font-size="14.00">CEN.ND</text>
<text text-anchor="middle" x="509" y="-567.8" font-family="Times,serif" font-size="14.00">NDC.ND</text>
</g>
<!-- CEN.ND\nNDC.ND&#45;&gt;CEN.Midwest\nNDC.Midwest -->
<g id="edge25" class="edge"><title>CEN.ND\nNDC.ND&#45;&gt;CEN.Midwest\nNDC.Midwest</title>
<path fill="none" stroke="#000000" d="M474.791,-570.869C462.205,-566.544 448.413,-560.168 438,-551 385.22,-504.532 352.66,-426.075 338.06,-383.894"/>
<polygon fill="#000000" stroke="#000000" points="341.318,-382.602 334.813,-374.238 334.683,-384.832 341.318,-382.602"/>
</g>
<!-- CEN.NE\nNDC.NE -->
<g id="node39" class="node"><title>CEN.NE\nNDC.NE</title>
<path fill="#eeeeee" stroke="black" d="M530.5,-542C530.5,-542 487.5,-542 487.5,-542 481.5,-542 475.5,-536 475.5,-530 475.5,-530 475.5,-516 475.5,-516 475.5,-510 481.5,-504 487.5,-504 487.5,-504 530.5,-504 530.5,-504 536.5,-504 542.5,-510 542.5,-516 542.5,-516 542.5,-530 542.5,-530 542.5,-536 536.5,-542 530.5,-542"/>
<text text-anchor="middle" x="509" y="-526.8" font-family="Times,serif" font-size="14.00">CEN.NE</text>
<text text-anchor="middle" x="509" y="-511.8" font-family="Times,serif" font-size="14.00">NDC.NE</text>
</g>
<!-- CEN.NE\nNDC.NE&#45;&gt;CEN.Midwest\nNDC.Midwest -->
<g id="edge41" class="edge"><title>CEN.NE\nNDC.NE&#45;&gt;CEN.Midwest\nNDC.Midwest</title>
<path fill="none" stroke="#000000" d="M475.486,-514.016C462.995,-509.574 449.088,-503.34 438,-495 396.998,-464.16 363.209,-414.187 344.604,-383.033"/>
<polygon fill="#000000" stroke="#000000" points="347.618,-381.255 339.545,-374.394 341.578,-384.792 347.618,-381.255"/>
</g>
<!-- CEN.KY\nNDC.KY -->
<g id="node40" class="node"><title>CEN.KY\nNDC.KY</title>
<path fill="#eeeeee" stroke="black" d="M674,-1129C674,-1129 630,-1129 630,-1129 624,-1129 618,-1123 618,-1117 618,-1117 618,-1103 618,-1103 618,-1097 624,-1091 630,-1091 630,-1091 674,-1091 674,-1091 680,-1091 686,-1097 686,-1103 686,-1103 686,-1117 686,-1117 686,-1123 680,-1129 674,-1129"/>
<text text-anchor="middle" x="652" y="-1113.8" font-family="Times,serif" font-size="14.00">CEN.KY</text>
<text text-anchor="middle" x="652" y="-1098.8" font-family="Times,serif" font-size="14.00">NDC.KY</text>
</g>
<!-- CEN.KY\nNDC.KY&#45;&gt;NDC.Southeast -->
<g id="edge45" class="edge"><title>CEN.KY\nNDC.KY&#45;&gt;NDC.Southeast</title>
<path fill="none" stroke="#000000" d="M617.824,-1123.71C605.916,-1128.59 592.375,-1134.09 580,-1139 573.342,-1141.64 566.313,-1144.4 559.381,-1147.09"/>
<polygon fill="#000000" stroke="#000000" points="558.092,-1143.84 550.032,-1150.71 560.621,-1150.37 558.092,-1143.84"/>
</g>
<!-- CEN.MT\nNDC.MT -->
<g id="node41" class="node"><title>CEN.MT\nNDC.MT</title>
<path fill="#eeeeee" stroke="black" d="M675,-625C675,-625 629,-625 629,-625 623,-625 617,-619 617,-613 617,-613 617,-599 617,-599 617,-593 623,-587 629,-587 629,-587 675,-587 675,-587 681,-587 687,-593 687,-599 687,-599 687,-613 687,-613 687,-619 681,-625 675,-625"/>
<text text-anchor="middle" x="652" y="-609.8" font-family="Times,serif" font-size="14.00">CEN.MT</text>
<text text-anchor="middle" x="652" y="-594.8" font-family="Times,serif" font-size="14.00">NDC.MT</text>
</g>
<!-- CEN.MT\nNDC.MT&#45;&gt;NDC.West -->
<g id="edge14" class="edge"><title>CEN.MT\nNDC.MT&#45;&gt;NDC.West</title>
<path fill="none" stroke="#000000" d="M626.892,-625.269C623.241,-628.192 619.52,-631.175 616,-634 599.978,-646.862 597.798,-652.736 580,-663 573.177,-666.935 565.672,-670.517 558.187,-673.694"/>
<polygon fill="#000000" stroke="#000000" points="556.732,-670.507 548.771,-677.498 559.354,-676.998 556.732,-670.507"/>
</g>
<!-- CEN.NV\nNDC.NV -->
<g id="node42" class="node"><title>CEN.NV\nNDC.NV</title>
<path fill="#eeeeee" stroke="black" d="M674,-569C674,-569 630,-569 630,-569 624,-569 618,-563 618,-557 618,-557 618,-543 618,-543 618,-537 624,-531 630,-531 630,-531 674,-531 674,-531 680,-531 686,-537 686,-543 686,-543 686,-557 686,-557 686,-563 680,-569 674,-569"/>
<text text-anchor="middle" x="652" y="-553.8" font-family="Times,serif" font-size="14.00">CEN.NV</text>
<text text-anchor="middle" x="652" y="-538.8" font-family="Times,serif" font-size="14.00">NDC.NV</text>
</g>
<!-- CEN.NV\nNDC.NV&#45;&gt;NDC.West -->
<g id="edge11" class="edge"><title>CEN.NV\nNDC.NV&#45;&gt;NDC.West</title>
<path fill="none" stroke="#000000" d="M624.048,-569.188C621.116,-571.941 618.35,-574.899 616,-578 591.226,-610.702 609.477,-634.465 580,-663 575.095,-667.748 569.265,-671.683 563.094,-674.94"/>
<polygon fill="#000000" stroke="#000000" points="561.459,-671.841 553.877,-679.241 564.419,-678.184 561.459,-671.841"/>
</g>
<!-- CEN.PA\nNDC.PA -->
<g id="node43" class="node"><title>CEN.PA\nNDC.PA</title>
<path fill="#eeeeee" stroke="black" d="M673,-1633C673,-1633 631,-1633 631,-1633 625,-1633 619,-1627 619,-1621 619,-1621 619,-1607 619,-1607 619,-1601 625,-1595 631,-1595 631,-1595 673,-1595 673,-1595 679,-1595 685,-1601 685,-1607 685,-1607 685,-1621 685,-1621 685,-1627 679,-1633 673,-1633"/>
<text text-anchor="middle" x="652" y="-1617.8" font-family="Times,serif" font-size="14.00">CEN.PA</text>
<text text-anchor="middle" x="652" y="-1602.8" font-family="Times,serif" font-size="14.00">NDC.PA</text>
</g>
<!-- CEN.PA\nNDC.PA&#45;&gt;CEN.Northeast -->
<g id="edge6" class="edge"><title>CEN.PA\nNDC.PA&#45;&gt;CEN.Northeast</title>
<path fill="none" stroke="#000000" d="M626.163,-1633.16C622.685,-1636.05 619.207,-1639.05 616,-1642 585.688,-1669.89 553.523,-1704.71 532.681,-1728.06"/>
<polygon fill="#000000" stroke="#000000" points="529.824,-1726.01 525.803,-1735.81 535.059,-1730.65 529.824,-1726.01"/>
</g>
<!-- CEN.Midwest\nNDC.Midwest&#45;&gt;NDC.USA -->
<g id="edge58" class="edge"><title>CEN.Midwest\nNDC.Midwest&#45;&gt;NDC.USA</title>
<path fill="none" stroke="#000000" d="M322.326,-374.127C299.434,-467.815 199.142,-878.27 171.868,-989.893"/>
<polygon fill="#000000" stroke="#000000" points="168.435,-989.196 169.461,-999.741 175.235,-990.858 168.435,-989.196"/>
</g>
<!-- CEN.SD\nNDC.SD -->
<g id="node45" class="node"><title>CEN.SD\nNDC.SD</title>
<path fill="#eeeeee" stroke="black" d="M530,-486C530,-486 488,-486 488,-486 482,-486 476,-480 476,-474 476,-474 476,-460 476,-460 476,-454 482,-448 488,-448 488,-448 530,-448 530,-448 536,-448 542,-454 542,-460 542,-460 542,-474 542,-474 542,-480 536,-486 530,-486"/>
<text text-anchor="middle" x="509" y="-470.8" font-family="Times,serif" font-size="14.00">CEN.SD</text>
<text text-anchor="middle" x="509" y="-455.8" font-family="Times,serif" font-size="14.00">NDC.SD</text>
</g>
<!-- CEN.SD\nNDC.SD&#45;&gt;CEN.Midwest\nNDC.Midwest -->
<g id="edge64" class="edge"><title>CEN.SD\nNDC.SD&#45;&gt;CEN.Midwest\nNDC.Midwest</title>
<path fill="none" stroke="#000000" d="M475.776,-456.244C463.593,-451.633 449.823,-445.747 438,-439 408.929,-422.411 379.031,-398.821 357.918,-380.861"/>
<polygon fill="#000000" stroke="#000000" points="360.138,-378.154 350.277,-374.28 355.57,-383.458 360.138,-378.154"/>
</g>
<!-- CEN.WI\nNDC.WI -->
<g id="node46" class="node"><title>CEN.WI\nNDC.WI</title>
<path fill="#eeeeee" stroke="black" d="M530.5,-430C530.5,-430 487.5,-430 487.5,-430 481.5,-430 475.5,-424 475.5,-418 475.5,-418 475.5,-404 475.5,-404 475.5,-398 481.5,-392 487.5,-392 487.5,-392 530.5,-392 530.5,-392 536.5,-392 542.5,-398 542.5,-404 542.5,-404 542.5,-418 542.5,-418 542.5,-424 536.5,-430 530.5,-430"/>
<text text-anchor="middle" x="509" y="-414.8" font-family="Times,serif" font-size="14.00">CEN.WI</text>
<text text-anchor="middle" x="509" y="-399.8" font-family="Times,serif" font-size="14.00">NDC.WI</text>
</g>
<!-- CEN.WI\nNDC.WI&#45;&gt;CEN.Midwest\nNDC.Midwest -->
<g id="edge36" class="edge"><title>CEN.WI\nNDC.WI&#45;&gt;CEN.Midwest\nNDC.Midwest</title>
<path fill="none" stroke="#000000" d="M475.169,-400.729C450.413,-392.984 415.832,-382.165 386.52,-372.995"/>
<polygon fill="#000000" stroke="#000000" points="387.392,-369.601 376.803,-369.955 385.302,-376.281 387.392,-369.601"/>
</g>
<!-- CEN.IA\nNDC.IA -->
<g id="node47" class="node"><title>CEN.IA\nNDC.IA</title>
<path fill="#eeeeee" stroke="black" d="M528.5,-374C528.5,-374 489.5,-374 489.5,-374 483.5,-374 477.5,-368 477.5,-362 477.5,-362 477.5,-348 477.5,-348 477.5,-342 483.5,-336 489.5,-336 489.5,-336 528.5,-336 528.5,-336 534.5,-336 540.5,-342 540.5,-348 540.5,-348 540.5,-362 540.5,-362 540.5,-368 534.5,-374 528.5,-374"/>
<text text-anchor="middle" x="509" y="-358.8" font-family="Times,serif" font-size="14.00">CEN.IA</text>
<text text-anchor="middle" x="509" y="-343.8" font-family="Times,serif" font-size="14.00">NDC.IA</text>
</g>
<!-- CEN.IA\nNDC.IA&#45;&gt;CEN.Midwest\nNDC.Midwest -->
<g id="edge46" class="edge"><title>CEN.IA\nNDC.IA&#45;&gt;CEN.Midwest\nNDC.Midwest</title>
<path fill="none" stroke="#000000" d="M477.229,-355C452.461,-355 416.949,-355 386.893,-355"/>
<polygon fill="#000000" stroke="#000000" points="386.516,-351.5 376.516,-355 386.516,-358.5 386.516,-351.5"/>
</g>
<!-- CEN.RI\nNDC.RI -->
<g id="node48" class="node"><title>CEN.RI\nNDC.RI</title>
<path fill="#eeeeee" stroke="black" d="M671,-1577C671,-1577 633,-1577 633,-1577 627,-1577 621,-1571 621,-1565 621,-1565 621,-1551 621,-1551 621,-1545 627,-1539 633,-1539 633,-1539 671,-1539 671,-1539 677,-1539 683,-1545 683,-1551 683,-1551 683,-1565 683,-1565 683,-1571 677,-1577 671,-1577"/>
<text text-anchor="middle" x="652" y="-1561.8" font-family="Times,serif" font-size="14.00">CEN.RI</text>
<text text-anchor="middle" x="652" y="-1546.8" font-family="Times,serif" font-size="14.00">NDC.RI</text>
</g>
<!-- CEN.RI\nNDC.RI&#45;&gt;CEN.Northeast -->
<g id="edge10" class="edge"><title>CEN.RI\nNDC.RI&#45;&gt;CEN.Northeast</title>
<path fill="none" stroke="#000000" d="M624.883,-1577.26C621.742,-1580.04 618.697,-1582.98 616,-1586 576.082,-1630.65 541.541,-1692.04 523.452,-1726.9"/>
<polygon fill="#000000" stroke="#000000" points="520.238,-1725.5 518.796,-1736 526.469,-1728.69 520.238,-1725.5"/>
</g>
<!-- CEN.IL\nNDC.IL -->
<g id="node49" class="node"><title>CEN.IL\nNDC.IL</title>
<path fill="#eeeeee" stroke="black" d="M528,-318C528,-318 490,-318 490,-318 484,-318 478,-312 478,-306 478,-306 478,-292 478,-292 478,-286 484,-280 490,-280 490,-280 528,-280 528,-280 534,-280 540,-286 540,-292 540,-292 540,-306 540,-306 540,-312 534,-318 528,-318"/>
<text text-anchor="middle" x="509" y="-302.8" font-family="Times,serif" font-size="14.00">CEN.IL</text>
<text text-anchor="middle" x="509" y="-287.8" font-family="Times,serif" font-size="14.00">NDC.IL</text>
</g>
<!-- CEN.IL\nNDC.IL&#45;&gt;CEN.Midwest\nNDC.Midwest -->
<g id="edge43" class="edge"><title>CEN.IL\nNDC.IL&#45;&gt;CEN.Midwest\nNDC.Midwest</title>
<path fill="none" stroke="#000000" d="M477.635,-308.5C452.704,-316.299 416.692,-327.566 386.359,-337.055"/>
<polygon fill="#000000" stroke="#000000" points="385.231,-333.741 376.732,-340.067 387.321,-340.422 385.231,-333.741"/>
</g>
<!-- CEN.OR\nNDC.OR -->
<g id="node50" class="node"><title>CEN.OR\nNDC.OR</title>
<path fill="#eeeeee" stroke="black" d="M674,-513C674,-513 630,-513 630,-513 624,-513 618,-507 618,-501 618,-501 618,-487 618,-487 618,-481 624,-475 630,-475 630,-475 674,-475 674,-475 680,-475 686,-481 686,-487 686,-487 686,-501 686,-501 686,-507 680,-513 674,-513"/>
<text text-anchor="middle" x="652" y="-497.8" font-family="Times,serif" font-size="14.00">CEN.OR</text>
<text text-anchor="middle" x="652" y="-482.8" font-family="Times,serif" font-size="14.00">NDC.OR</text>
</g>
<!-- CEN.OR\nNDC.OR&#45;&gt;NDC.West -->
<g id="edge28" class="edge"><title>CEN.OR\nNDC.OR&#45;&gt;NDC.West</title>
<path fill="none" stroke="#000000" d="M623.241,-513.2C620.521,-515.916 618.025,-518.861 616,-522 580.934,-576.346 622.954,-614.646 580,-663 575.686,-667.857 570.395,-671.846 564.673,-675.121"/>
<polygon fill="#000000" stroke="#000000" points="562.818,-672.134 555.404,-679.703 565.92,-678.41 562.818,-672.134"/>
</g>
<!-- CEN.VT\nNDC.VT -->
<g id="node51" class="node"><title>CEN.VT\nNDC.VT</title>
<path fill="#eeeeee" stroke="black" d="M673.5,-2025C673.5,-2025 630.5,-2025 630.5,-2025 624.5,-2025 618.5,-2019 618.5,-2013 618.5,-2013 618.5,-1999 618.5,-1999 618.5,-1993 624.5,-1987 630.5,-1987 630.5,-1987 673.5,-1987 673.5,-1987 679.5,-1987 685.5,-1993 685.5,-1999 685.5,-1999 685.5,-2013 685.5,-2013 685.5,-2019 679.5,-2025 673.5,-2025"/>
<text text-anchor="middle" x="652" y="-2009.8" font-family="Times,serif" font-size="14.00">CEN.VT</text>
<text text-anchor="middle" x="652" y="-1994.8" font-family="Times,serif" font-size="14.00">NDC.VT</text>
</g>
<!-- CEN.VT\nNDC.VT&#45;&gt;CEN.Northeast -->
<g id="edge48" class="edge"><title>CEN.VT\nNDC.VT&#45;&gt;CEN.Northeast</title>
<path fill="none" stroke="#000000" d="M624.172,-1986.72C621.219,-1983.98 618.413,-1981.05 616,-1978 566.613,-1915.54 533.231,-1826.31 518.527,-1781.67"/>
<polygon fill="#000000" stroke="#000000" points="521.835,-1780.52 515.432,-1772.08 515.173,-1782.67 521.835,-1780.52"/>
</g>
<!-- CEN.OK\nNDC.OK -->
<g id="node52" class="node"><title>CEN.OK\nNDC.OK</title>
<path fill="#eeeeee" stroke="black" d="M531,-1130C531,-1130 487,-1130 487,-1130 481,-1130 475,-1124 475,-1118 475,-1118 475,-1104 475,-1104 475,-1098 481,-1092 487,-1092 487,-1092 531,-1092 531,-1092 537,-1092 543,-1098 543,-1104 543,-1104 543,-1118 543,-1118 543,-1124 537,-1130 531,-1130"/>
<text text-anchor="middle" x="509" y="-1114.8" font-family="Times,serif" font-size="14.00">CEN.OK</text>
<text text-anchor="middle" x="509" y="-1099.8" font-family="Times,serif" font-size="14.00">NDC.OK</text>
</g>
<!-- CEN.OK\nNDC.OK&#45;&gt;CEN.South -->
<g id="edge31" class="edge"><title>CEN.OK\nNDC.OK&#45;&gt;CEN.South</title>
<path fill="none" stroke="#000000" d="M474.751,-1121.22C447.382,-1129.63 408.21,-1141.66 377.367,-1151.14"/>
<polygon fill="#000000" stroke="#000000" points="376.203,-1147.83 367.672,-1154.12 378.259,-1154.53 376.203,-1147.83"/>
</g>
<!-- CEN.OK\nNDC.OK&#45;&gt;NDC.Southwest -->
<g id="edge30" class="edge"><title>CEN.OK\nNDC.OK&#45;&gt;NDC.Southwest</title>
<path fill="none" stroke="#000000" d="M474.77,-1098.94C462.981,-1094.34 449.734,-1088.8 438,-1083 412.941,-1070.61 385.947,-1054.54 365.092,-1041.47"/>
<polygon fill="#000000" stroke="#000000" points="366.877,-1038.46 356.553,-1036.08 363.138,-1044.38 366.877,-1038.46"/>
</g>
<!-- CEN.WV\nNDC.WV -->
<g id="node53" class="node"><title>CEN.WV\nNDC.WV</title>
<path fill="#eeeeee" stroke="black" d="M676,-1073C676,-1073 628,-1073 628,-1073 622,-1073 616,-1067 616,-1061 616,-1061 616,-1047 616,-1047 616,-1041 622,-1035 628,-1035 628,-1035 676,-1035 676,-1035 682,-1035 688,-1041 688,-1047 688,-1047 688,-1061 688,-1061 688,-1067 682,-1073 676,-1073"/>
<text text-anchor="middle" x="652" y="-1057.8" font-family="Times,serif" font-size="14.00">CEN.WV</text>
<text text-anchor="middle" x="652" y="-1042.8" font-family="Times,serif" font-size="14.00">NDC.WV</text>
</g>
<!-- CEN.WV\nNDC.WV&#45;&gt;NDC.Southeast -->
<g id="edge34" class="edge"><title>CEN.WV\nNDC.WV&#45;&gt;NDC.Southeast</title>
<path fill="none" stroke="#000000" d="M624.884,-1073.26C621.743,-1076.04 618.697,-1078.98 616,-1082 596.026,-1104.33 603.151,-1119.98 580,-1139 575.786,-1142.46 571.077,-1145.52 566.149,-1148.2"/>
<polygon fill="#000000" stroke="#000000" points="564.535,-1145.09 557.1,-1152.64 567.619,-1151.38 564.535,-1145.09"/>
</g>
<!-- CEN.CO\nNDC.CO -->
<g id="node54" class="node"><title>CEN.CO\nNDC.CO</title>
<path fill="#eeeeee" stroke="black" d="M674,-457C674,-457 630,-457 630,-457 624,-457 618,-451 618,-445 618,-445 618,-431 618,-431 618,-425 624,-419 630,-419 630,-419 674,-419 674,-419 680,-419 686,-425 686,-431 686,-431 686,-445 686,-445 686,-451 680,-457 674,-457"/>
<text text-anchor="middle" x="652" y="-441.8" font-family="Times,serif" font-size="14.00">CEN.CO</text>
<text text-anchor="middle" x="652" y="-426.8" font-family="Times,serif" font-size="14.00">NDC.CO</text>
</g>
<!-- CEN.CO\nNDC.CO&#45;&gt;NDC.West -->
<g id="edge26" class="edge"><title>CEN.CO\nNDC.CO&#45;&gt;NDC.West</title>
<path fill="none" stroke="#000000" d="M623.023,-457.065C620.343,-459.805 617.915,-462.793 616,-466 570.361,-542.414 636.772,-594.452 580,-663 575.856,-668.003 570.67,-672.082 565.005,-675.406"/>
<polygon fill="#000000" stroke="#000000" points="563.156,-672.418 555.79,-680.034 566.297,-678.674 563.156,-672.418"/>
</g>
<!-- CEN.MO\nNDC.MO -->
<g id="node55" class="node"><title>CEN.MO\nNDC.MO</title>
<path fill="#eeeeee" stroke="black" d="M532.5,-94C532.5,-94 485.5,-94 485.5,-94 479.5,-94 473.5,-88 473.5,-82 473.5,-82 473.5,-68 473.5,-68 473.5,-62 479.5,-56 485.5,-56 485.5,-56 532.5,-56 532.5,-56 538.5,-56 544.5,-62 544.5,-68 544.5,-68 544.5,-82 544.5,-82 544.5,-88 538.5,-94 532.5,-94"/>
<text text-anchor="middle" x="509" y="-78.8" font-family="Times,serif" font-size="14.00">CEN.MO</text>
<text text-anchor="middle" x="509" y="-63.8" font-family="Times,serif" font-size="14.00">NDC.MO</text>
</g>
<!-- CEN.MO\nNDC.MO&#45;&gt;CEN.Midwest\nNDC.Midwest -->
<g id="edge19" class="edge"><title>CEN.MO\nNDC.MO&#45;&gt;CEN.Midwest\nNDC.Midwest</title>
<path fill="none" stroke="#000000" d="M473.232,-82.9767C460.883,-87.2316 447.664,-93.6002 438,-103 373.106,-166.119 344.508,-274.277 334.067,-325.91"/>
<polygon fill="#000000" stroke="#000000" points="330.628,-325.261 332.162,-335.744 337.5,-326.592 330.628,-325.261"/>
</g>
<!-- CEN.NH\nNDC.NH -->
<g id="node56" class="node"><title>CEN.NH\nNDC.NH</title>
<path fill="#eeeeee" stroke="black" d="M674,-1969C674,-1969 630,-1969 630,-1969 624,-1969 618,-1963 618,-1957 618,-1957 618,-1943 618,-1943 618,-1937 624,-1931 630,-1931 630,-1931 674,-1931 674,-1931 680,-1931 686,-1937 686,-1943 686,-1943 686,-1957 686,-1957 686,-1963 680,-1969 674,-1969"/>
<text text-anchor="middle" x="652" y="-1953.8" font-family="Times,serif" font-size="14.00">CEN.NH</text>
<text text-anchor="middle" x="652" y="-1938.8" font-family="Times,serif" font-size="14.00">NDC.NH</text>
</g>
<!-- CEN.NH\nNDC.NH&#45;&gt;CEN.Northeast -->
<g id="edge52" class="edge"><title>CEN.NH\nNDC.NH&#45;&gt;CEN.Northeast</title>
<path fill="none" stroke="#000000" d="M624.883,-1930.74C621.742,-1927.96 618.697,-1925.02 616,-1922 576.082,-1877.35 541.541,-1815.96 523.452,-1781.1"/>
<polygon fill="#000000" stroke="#000000" points="526.469,-1779.31 518.796,-1772 520.238,-1782.5 526.469,-1779.31"/>
</g>
<!-- CEN.LA\nNDC.LA -->
<g id="node57" class="node"><title>CEN.LA\nNDC.LA</title>
<path fill="#eeeeee" stroke="black" d="M673.5,-1017C673.5,-1017 630.5,-1017 630.5,-1017 624.5,-1017 618.5,-1011 618.5,-1005 618.5,-1005 618.5,-991 618.5,-991 618.5,-985 624.5,-979 630.5,-979 630.5,-979 673.5,-979 673.5,-979 679.5,-979 685.5,-985 685.5,-991 685.5,-991 685.5,-1005 685.5,-1005 685.5,-1011 679.5,-1017 673.5,-1017"/>
<text text-anchor="middle" x="652" y="-1001.8" font-family="Times,serif" font-size="14.00">CEN.LA</text>
<text text-anchor="middle" x="652" y="-986.8" font-family="Times,serif" font-size="14.00">NDC.LA</text>
</g>
<!-- CEN.LA\nNDC.LA&#45;&gt;NDC.Southeast -->
<g id="edge32" class="edge"><title>CEN.LA\nNDC.LA&#45;&gt;NDC.Southeast</title>
<path fill="none" stroke="#000000" d="M623.42,-1017.32C620.669,-1020.01 618.116,-1022.92 616,-1026 586.141,-1069.44 616.142,-1100.63 580,-1139 576.659,-1142.55 572.8,-1145.63 568.646,-1148.32"/>
<polygon fill="#000000" stroke="#000000" points="566.79,-1145.35 559.774,-1153.29 570.21,-1151.45 566.79,-1145.35"/>
</g>
<!-- CEN.ME\nNDC.ME -->
<g id="node58" class="node"><title>CEN.ME\nNDC.ME</title>
<path fill="#eeeeee" stroke="black" d="M675,-1913C675,-1913 629,-1913 629,-1913 623,-1913 617,-1907 617,-1901 617,-1901 617,-1887 617,-1887 617,-1881 623,-1875 629,-1875 629,-1875 675,-1875 675,-1875 681,-1875 687,-1881 687,-1887 687,-1887 687,-1901 687,-1901 687,-1907 681,-1913 675,-1913"/>
<text text-anchor="middle" x="652" y="-1897.8" font-family="Times,serif" font-size="14.00">CEN.ME</text>
<text text-anchor="middle" x="652" y="-1882.8" font-family="Times,serif" font-size="14.00">NDC.ME</text>
</g>
<!-- CEN.ME\nNDC.ME&#45;&gt;CEN.Northeast -->
<g id="edge20" class="edge"><title>CEN.ME\nNDC.ME&#45;&gt;CEN.Northeast</title>
<path fill="none" stroke="#000000" d="M626.163,-1874.84C622.685,-1871.95 619.207,-1868.95 616,-1866 585.688,-1838.11 553.523,-1803.29 532.681,-1779.94"/>
<polygon fill="#000000" stroke="#000000" points="535.059,-1777.35 525.803,-1772.19 529.824,-1781.99 535.059,-1777.35"/>
</g>
<!-- CEN.AL\nNDC.AL -->
<g id="node59" class="node"><title>CEN.AL\nNDC.AL</title>
<path fill="#eeeeee" stroke="black" d="M673.5,-961C673.5,-961 630.5,-961 630.5,-961 624.5,-961 618.5,-955 618.5,-949 618.5,-949 618.5,-935 618.5,-935 618.5,-929 624.5,-923 630.5,-923 630.5,-923 673.5,-923 673.5,-923 679.5,-923 685.5,-929 685.5,-935 685.5,-935 685.5,-949 685.5,-949 685.5,-955 679.5,-961 673.5,-961"/>
<text text-anchor="middle" x="652" y="-945.8" font-family="Times,serif" font-size="14.00">CEN.AL</text>
<text text-anchor="middle" x="652" y="-930.8" font-family="Times,serif" font-size="14.00">NDC.AL</text>
</g>
<!-- CEN.AL\nNDC.AL&#45;&gt;NDC.Southeast -->
<g id="edge68" class="edge"><title>CEN.AL\nNDC.AL&#45;&gt;NDC.Southeast</title>
<path fill="none" stroke="#000000" d="M623.115,-961.121C620.418,-963.851 617.962,-966.821 616,-970 575.665,-1035.35 629.841,-1080.57 580,-1139 576.97,-1142.55 573.416,-1145.64 569.545,-1148.32"/>
<polygon fill="#000000" stroke="#000000" points="567.479,-1145.48 560.641,-1153.57 571.033,-1151.51 567.479,-1145.48"/>
</g>
<!-- CEN.WY\nNDC.WY -->
<g id="node60" class="node"><title>CEN.WY\nNDC.WY</title>
<path fill="#eeeeee" stroke="black" d="M676,-401C676,-401 628,-401 628,-401 622,-401 616,-395 616,-389 616,-389 616,-375 616,-375 616,-369 622,-363 628,-363 628,-363 676,-363 676,-363 682,-363 688,-369 688,-375 688,-375 688,-389 688,-389 688,-395 682,-401 676,-401"/>
<text text-anchor="middle" x="652" y="-385.8" font-family="Times,serif" font-size="14.00">CEN.WY</text>
<text text-anchor="middle" x="652" y="-370.8" font-family="Times,serif" font-size="14.00">NDC.WY</text>
</g>
<!-- CEN.WY\nNDC.WY&#45;&gt;NDC.West -->
<g id="edge47" class="edge"><title>CEN.WY\nNDC.WY&#45;&gt;NDC.West</title>
<path fill="none" stroke="#000000" d="M622.566,-401.337C620.041,-403.996 617.775,-406.891 616,-410 559.694,-508.638 650.708,-574.117 580,-663 576.009,-668.017 570.965,-672.103 565.42,-675.43"/>
<polygon fill="#000000" stroke="#000000" points="563.683,-672.388 556.375,-680.06 566.872,-678.619 563.683,-672.388"/>
</g>
<!-- CEN.FL\nNDC.FL -->
<g id="node61" class="node"><title>CEN.FL\nNDC.FL</title>
<path fill="#eeeeee" stroke="black" d="M672.5,-905C672.5,-905 631.5,-905 631.5,-905 625.5,-905 619.5,-899 619.5,-893 619.5,-893 619.5,-879 619.5,-879 619.5,-873 625.5,-867 631.5,-867 631.5,-867 672.5,-867 672.5,-867 678.5,-867 684.5,-873 684.5,-879 684.5,-879 684.5,-893 684.5,-893 684.5,-899 678.5,-905 672.5,-905"/>
<text text-anchor="middle" x="652" y="-889.8" font-family="Times,serif" font-size="14.00">CEN.FL</text>
<text text-anchor="middle" x="652" y="-874.8" font-family="Times,serif" font-size="14.00">NDC.FL</text>
</g>
<!-- CEN.FL\nNDC.FL&#45;&gt;NDC.Southeast -->
<g id="edge12" class="edge"><title>CEN.FL\nNDC.FL&#45;&gt;NDC.Southeast</title>
<path fill="none" stroke="#000000" d="M622.953,-905.024C620.285,-907.771 617.88,-910.772 616,-914 565.035,-1001.51 643.731,-1060.3 580,-1139 577.109,-1142.57 573.687,-1145.67 569.933,-1148.36"/>
<polygon fill="#000000" stroke="#000000" points="568.001,-1145.44 561.267,-1153.62 571.632,-1151.42 568.001,-1145.44"/>
</g>
<!-- Legend -->
<g id="node62" class="node"><title>Legend</title>
<path fill="white" stroke="black" d="M793.5,-482.5C793.5,-482.5 736.5,-482.5 736.5,-482.5 730.5,-482.5 724.5,-476.5 724.5,-470.5 724.5,-470.5 724.5,-293.5 724.5,-293.5 724.5,-287.5 730.5,-281.5 736.5,-281.5 736.5,-281.5 793.5,-281.5 793.5,-281.5 799.5,-281.5 805.5,-287.5 805.5,-293.5 805.5,-293.5 805.5,-470.5 805.5,-470.5 805.5,-476.5 799.5,-482.5 793.5,-482.5"/>
<polygon fill="none" stroke="black" points="725,-456 725,-482 806,-482 806,-456 725,-456"/>
<text text-anchor="start" x="741" y="-465.3" font-family="Arial Black" font-size="14.00"> Nodes</text>
<polygon fill="#ccffcc" stroke="none" points="725,-431 725,-456 782,-456 782,-431 725,-431"/>
<polygon fill="none" stroke="black" points="725,-431 725,-456 782,-456 782,-431 725,-431"/>
<text text-anchor="start" x="739.5" y="-439.8" font-family="Times,serif" font-size="14.00">CEN</text>
<polygon fill="none" stroke="black" points="782,-431 782,-456 806,-456 806,-431 782,-431"/>
<text text-anchor="start" x="790.5" y="-439.8" font-family="Times,serif" font-size="14.00">7</text>
<polygon fill="#ffffcc" stroke="none" points="725,-406 725,-431 782,-431 782,-406 725,-406"/>
<polygon fill="none" stroke="black" points="725,-406 725,-431 782,-431 782,-406 725,-406"/>
<text text-anchor="start" x="739" y="-414.8" font-family="Times,serif" font-size="14.00">NDC</text>
<polygon fill="none" stroke="black" points="782,-406 782,-431 806,-431 806,-406 782,-406"/>
<text text-anchor="start" x="790.5" y="-414.8" font-family="Times,serif" font-size="14.00">5</text>
<polygon fill="#eeeeee" stroke="none" points="725,-381 725,-406 782,-406 782,-381 725,-381"/>
<polygon fill="none" stroke="black" points="725,-381 725,-406 782,-406 782,-381 725,-381"/>
<text text-anchor="start" x="738" y="-389.8" font-family="Times,serif" font-size="14.00">comb</text>
<polygon fill="none" stroke="black" points="782,-381 782,-406 806,-406 806,-381 782,-381"/>
<text text-anchor="start" x="787" y="-389.8" font-family="Times,serif" font-size="14.00">49</text>
<polygon fill="none" stroke="black" points="725,-356 725,-381 806,-381 806,-356 725,-356"/>
<text text-anchor="start" x="739.5" y="-364.8" font-family="Arial Black" font-size="14.00"> Edges </text>
<polygon fill="none" stroke="black" points="725,-331 725,-356 782,-356 782,-331 725,-331"/>
<text text-anchor="start" x="730.5" y="-339.8" font-family="Times,serif" font-size="14.00" fill="#0000ff">overlaps</text>
<polygon fill="none" stroke="black" points="782,-331 782,-356 806,-356 806,-331 782,-331"/>
<text text-anchor="start" x="790.5" y="-339.8" font-family="Times,serif" font-size="14.00">5</text>
<polygon fill="none" stroke="black" points="725,-306 725,-331 782,-331 782,-306 725,-306"/>
<text text-anchor="start" x="739.5" y="-314.8" font-family="Times,serif" font-size="14.00" fill="#000000">input</text>
<polygon fill="none" stroke="black" points="782,-306 782,-331 806,-331 806,-306 782,-306"/>
<text text-anchor="start" x="787" y="-314.8" font-family="Times,serif" font-size="14.00">64</text>
<polygon fill="none" stroke="black" points="725,-281 725,-306 782,-306 782,-281 725,-281"/>
<text text-anchor="start" x="732" y="-289.8" font-family="Times,serif" font-size="14.00" fill="#ff0000">inferred</text>
<polygon fill="none" stroke="black" points="782,-281 782,-306 806,-306 806,-281 782,-281"/>
<text text-anchor="start" x="790.5" y="-289.8" font-family="Times,serif" font-size="14.00">4</text>
</g>
</g>
</svg>
